{
	"asset":{
		"generator":"Khronos glTF Blender I/O v3.5.30",
		"version":"2.0"
	},
	"extensionsUsed":[
		"KHR_materials_emissive_strength"
	],
	"scene":0,
	"scenes":[
		{
			"name":"Scene",
			"nodes":[
				1,
				2,
				3,
				4,
				5
			]
		}
	],
	"nodes":[
		{
			"mesh":0,
			"name":"Icosphere.002",
			"scale":[
				0.06311967968940735,
				0.06311967223882675,
				0.06311967968940735
			],
			"translation":[
				1,
				0,
				0
			]
		},
		{
			"children":[
				0
			],
			"mesh":1,
			"name":"Circle",
			"scale":[
				6.12839412689209,
				6.12839412689209,
				6.12839412689209
			]
		},
		{
			"mesh":2,
			"name":"Circle.455",
			"scale":[
				0.17637234926223755,
				0.17637234926223755,
				0.17637233436107635
			]
		},
		{
			"mesh":3,
			"name":"Circle.643",
			"scale":[
				4.786618709564209,
				4.786618709564209,
				4.786618709564209
			]
		},
		{
			"mesh":4,
			"name":"Sphere.002",
			"rotation":[
				0,
				-0.997982919216156,
				0,
				0.06348446756601334
			],
			"scale":[
				0.9652165174484253,
				0.965216338634491,
				0.9652165174484253
			]
		},
		{
			"mesh":5,
			"name":"TERRE1",
			"scale":[
				3.2698328495025635,
				3.2698328495025635,
				3.2698328495025635
			]
		}
	],
	"animations":[
		{
			"channels":[
				{
					"sampler":0,
					"target":{
						"node":1,
						"path":"translation"
					}
				},
				{
					"sampler":1,
					"target":{
						"node":1,
						"path":"rotation"
					}
				},
				{
					"sampler":2,
					"target":{
						"node":1,
						"path":"scale"
					}
				}
			],
			"name":"Action.002",
			"samplers":[
				{
					"input":26,
					"interpolation":"LINEAR",
					"output":27
				},
				{
					"input":26,
					"interpolation":"LINEAR",
					"output":28
				},
				{
					"input":26,
					"interpolation":"LINEAR",
					"output":29
				}
			]
		},
		{
			"channels":[
				{
					"sampler":0,
					"target":{
						"node":0,
						"path":"translation"
					}
				},
				{
					"sampler":1,
					"target":{
						"node":0,
						"path":"rotation"
					}
				},
				{
					"sampler":2,
					"target":{
						"node":0,
						"path":"scale"
					}
				}
			],
			"name":"Action.004",
			"samplers":[
				{
					"input":26,
					"interpolation":"LINEAR",
					"output":30
				},
				{
					"input":26,
					"interpolation":"LINEAR",
					"output":31
				},
				{
					"input":26,
					"interpolation":"LINEAR",
					"output":32
				}
			]
		},
		{
			"channels":[
				{
					"sampler":0,
					"target":{
						"node":2,
						"path":"translation"
					}
				},
				{
					"sampler":1,
					"target":{
						"node":2,
						"path":"rotation"
					}
				},
				{
					"sampler":2,
					"target":{
						"node":2,
						"path":"scale"
					}
				}
			],
			"name":"Action.005",
			"samplers":[
				{
					"input":26,
					"interpolation":"LINEAR",
					"output":33
				},
				{
					"input":26,
					"interpolation":"LINEAR",
					"output":34
				},
				{
					"input":26,
					"interpolation":"LINEAR",
					"output":35
				}
			]
		},
		{
			"channels":[
				{
					"sampler":0,
					"target":{
						"node":2,
						"path":"weights"
					}
				}
			],
			"name":"KeyAction.001",
			"samplers":[
				{
					"input":36,
					"interpolation":"STEP",
					"output":37
				}
			]
		},
		{
			"channels":[
				{
					"sampler":0,
					"target":{
						"node":3,
						"path":"translation"
					}
				},
				{
					"sampler":1,
					"target":{
						"node":3,
						"path":"rotation"
					}
				},
				{
					"sampler":2,
					"target":{
						"node":3,
						"path":"scale"
					}
				}
			],
			"name":"Action.003",
			"samplers":[
				{
					"input":26,
					"interpolation":"LINEAR",
					"output":38
				},
				{
					"input":26,
					"interpolation":"LINEAR",
					"output":39
				},
				{
					"input":26,
					"interpolation":"LINEAR",
					"output":40
				}
			]
		},
		{
			"channels":[
				{
					"sampler":0,
					"target":{
						"node":4,
						"path":"translation"
					}
				},
				{
					"sampler":1,
					"target":{
						"node":4,
						"path":"rotation"
					}
				},
				{
					"sampler":2,
					"target":{
						"node":4,
						"path":"scale"
					}
				}
			],
			"name":"Action.006",
			"samplers":[
				{
					"input":26,
					"interpolation":"LINEAR",
					"output":41
				},
				{
					"input":26,
					"interpolation":"LINEAR",
					"output":42
				},
				{
					"input":26,
					"interpolation":"LINEAR",
					"output":43
				}
			]
		},
		{
			"channels":[
				{
					"sampler":0,
					"target":{
						"node":5,
						"path":"translation"
					}
				},
				{
					"sampler":1,
					"target":{
						"node":5,
						"path":"rotation"
					}
				},
				{
					"sampler":2,
					"target":{
						"node":5,
						"path":"scale"
					}
				}
			],
			"name":"Action.007",
			"samplers":[
				{
					"input":26,
					"interpolation":"LINEAR",
					"output":44
				},
				{
					"input":26,
					"interpolation":"LINEAR",
					"output":45
				},
				{
					"input":26,
					"interpolation":"LINEAR",
					"output":46
				}
			]
		}
	],
	"materials":[
		{
			"doubleSided":true,
			"emissiveFactor":[
				0.01967853307723999,
				0.20998241007328033,
				1
			],
			"extensions":{
				"KHR_materials_emissive_strength":{
					"emissiveStrength":12.09999942779541
				}
			},
			"name":"Material.008",
			"pbrMetallicRoughness":{
				"baseColorFactor":[
					0,
					0,
					0,
					1
				]
			}
		},
		{
			"doubleSided":true,
			"emissiveFactor":[
				0.18764667397916251,
				0,
				1
			],
			"extensions":{
				"KHR_materials_emissive_strength":{
					"emissiveStrength":4.240000150203684
				}
			},
			"name":"Material.010",
			"pbrMetallicRoughness":{
				"baseColorFactor":[
					0,
					0,
					0,
					1
				]
			}
		},
		{
			"doubleSided":true,
			"emissiveFactor":[
				0.06412582844495773,
				0,
				1
			],
			"extensions":{
				"KHR_materials_emissive_strength":{
					"emissiveStrength":10.899999618530273
				}
			},
			"name":"Material.007",
			"pbrMetallicRoughness":{
				"baseColorFactor":[
					0,
					0,
					0,
					1
				]
			}
		},
		{
			"doubleSided":true,
			"emissiveFactor":[
				1,
				0.4854264421379767,
				0
			],
			"extensions":{
				"KHR_materials_emissive_strength":{
					"emissiveStrength":3.3600001478195054
				}
			},
			"name":"Material.004",
			"pbrMetallicRoughness":{
				"baseColorFactor":[
					0,
					0,
					0,
					1
				]
			}
		},
		{
			"doubleSided":true,
			"emissiveFactor":[
				0.09428572654724121,
				0.5181227326393127,
				1
			],
			"extensions":{
				"KHR_materials_emissive_strength":{
					"emissiveStrength":7.099999904632568
				}
			},
			"name":"Material.006",
			"pbrMetallicRoughness":{
				"baseColorFactor":[
					0,
					0,
					0,
					1
				]
			}
		},
		{
			"doubleSided":true,
			"emissiveFactor":[
				0,
				1,
				0.06888403743505478
			],
			"extensions":{
				"KHR_materials_emissive_strength":{
					"emissiveStrength":1.3000001907348633
				}
			},
			"name":"Material.005",
			"pbrMetallicRoughness":{
				"baseColorFactor":[
					0,
					0,
					0,
					1
				]
			}
		}
	],
	"meshes":[
		{
			"name":"Icosphere.003",
			"primitives":[
				{
					"attributes":{
						"POSITION":0,
						"TEXCOORD_0":1,
						"NORMAL":2
					},
					"indices":3,
					"material":0
				}
			]
		},
		{
			"name":"Circle.003",
			"primitives":[
				{
					"attributes":{
						"POSITION":4,
						"TEXCOORD_0":5,
						"NORMAL":6
					},
					"indices":7,
					"material":1
				}
			]
		},
		{
			"extras":{
				"targetNames":[
					"Size"
				]
			},
			"name":"Circle",
			"primitives":[
				{
					"attributes":{
						"POSITION":8,
						"TEXCOORD_0":9,
						"NORMAL":10
					},
					"indices":11,
					"material":2,
					"targets":[
						{
							"POSITION":12,
							"NORMAL":13
						}
					]
				}
			],
			"weights":[
				0.002523571252822876
			]
		},
		{
			"name":"Circle.002",
			"primitives":[
				{
					"attributes":{
						"POSITION":14,
						"TEXCOORD_0":15,
						"NORMAL":16
					},
					"indices":17,
					"material":3
				}
			]
		},
		{
			"name":"Sphere.004",
			"primitives":[
				{
					"attributes":{
						"POSITION":18,
						"TEXCOORD_0":19,
						"NORMAL":20
					},
					"indices":21,
					"material":4
				}
			]
		},
		{
			"name":"Icosphere.002",
			"primitives":[
				{
					"attributes":{
						"POSITION":22,
						"TEXCOORD_0":23,
						"NORMAL":24
					},
					"indices":25,
					"material":5
				}
			]
		}
	],
	"accessors":[
		{
			"bufferView":0,
			"componentType":5126,
			"count":3840,
			"max":[
				1.7252111434936523,
				1.813997745513916,
				1.8140000104904175
			],
			"min":[
				-1.7252111434936523,
				-1.813997745513916,
				-1.8140000104904175
			],
			"type":"VEC3"
		},
		{
			"bufferView":1,
			"componentType":5126,
			"count":3840,
			"type":"VEC2"
		},
		{
			"bufferView":2,
			"componentType":5126,
			"count":3840,
			"type":"VEC3"
		},
		{
			"bufferView":3,
			"componentType":5123,
			"count":5760,
			"type":"SCALAR"
		},
		{
			"bufferView":4,
			"componentType":5126,
			"count":3904,
			"max":[
				0.9838945269584656,
				0.01213148608803749,
				1.003207802772522
			],
			"min":[
				-1.0032058954238892,
				-0.012184234336018562,
				-1.003207802772522
			],
			"type":"VEC3"
		},
		{
			"bufferView":5,
			"componentType":5126,
			"count":3904,
			"type":"VEC2"
		},
		{
			"bufferView":6,
			"componentType":5126,
			"count":3904,
			"type":"VEC3"
		},
		{
			"bufferView":7,
			"componentType":5123,
			"count":5856,
			"type":"SCALAR"
		},
		{
			"bufferView":8,
			"componentType":5126,
			"count":1926,
			"max":[
				22.604595184326172,
				22.615449905395508,
				22.63985824584961
			],
			"min":[
				-22.605594635009766,
				-22.610393524169922,
				-22.639860153198242
			],
			"type":"VEC3"
		},
		{
			"bufferView":9,
			"componentType":5126,
			"count":1926,
			"type":"VEC2"
		},
		{
			"bufferView":10,
			"componentType":5126,
			"count":1926,
			"type":"VEC3"
		},
		{
			"bufferView":11,
			"componentType":5123,
			"count":1926,
			"type":"SCALAR"
		},
		{
			"bufferView":12,
			"componentType":5126,
			"count":1926,
			"max":[
				0.563464879989624,
				0.34309595823287964,
				0.5612204074859619
			],
			"min":[
				-0.5612801313400269,
				-0.5647700428962708,
				-0.5641064643859863
			],
			"type":"VEC3"
		},
		{
			"bufferView":13,
			"componentType":5126,
			"count":1926,
			"type":"VEC3"
		},
		{
			"bufferView":14,
			"componentType":5126,
			"count":15360,
			"max":[
				1.0553085803985596,
				0.09564747661352158,
				1.0553085803985596
			],
			"min":[
				-1.0553085803985596,
				-0.09564747661352158,
				-1.0553085803985596
			],
			"type":"VEC3"
		},
		{
			"bufferView":15,
			"componentType":5126,
			"count":15360,
			"type":"VEC2"
		},
		{
			"bufferView":16,
			"componentType":5126,
			"count":15360,
			"type":"VEC3"
		},
		{
			"bufferView":17,
			"componentType":5123,
			"count":23040,
			"type":"SCALAR"
		},
		{
			"bufferView":18,
			"componentType":5126,
			"count":29040,
			"max":[
				3.4538302421569824,
				3.4700000286102295,
				3.469844341278076
			],
			"min":[
				-3.4437336921691895,
				-3.4700000286102295,
				-3.4626286029815674
			],
			"type":"VEC3"
		},
		{
			"bufferView":19,
			"componentType":5126,
			"count":29040,
			"type":"VEC2"
		},
		{
			"bufferView":20,
			"componentType":5126,
			"count":29040,
			"type":"VEC3"
		},
		{
			"bufferView":21,
			"componentType":5123,
			"count":43200,
			"type":"SCALAR"
		},
		{
			"bufferView":22,
			"componentType":5126,
			"count":9150,
			"max":[
				0.976074755191803,
				0.9915748238563538,
				0.9653877019882202
			],
			"min":[
				-0.9803544282913208,
				-0.9914307594299316,
				-0.8529186248779297
			],
			"type":"VEC3"
		},
		{
			"bufferView":23,
			"componentType":5126,
			"count":9150,
			"type":"VEC2"
		},
		{
			"bufferView":24,
			"componentType":5126,
			"count":9150,
			"type":"VEC3"
		},
		{
			"bufferView":25,
			"componentType":5123,
			"count":9150,
			"type":"SCALAR"
		},
		{
			"bufferView":26,
			"componentType":5126,
			"count":250,
			"max":[
				10.416666666666666
			],
			"min":[
				0.041666666666666664
			],
			"type":"SCALAR"
		},
		{
			"bufferView":27,
			"componentType":5126,
			"count":250,
			"type":"VEC3"
		},
		{
			"bufferView":28,
			"componentType":5126,
			"count":250,
			"type":"VEC4"
		},
		{
			"bufferView":29,
			"componentType":5126,
			"count":250,
			"type":"VEC3"
		},
		{
			"bufferView":30,
			"componentType":5126,
			"count":250,
			"type":"VEC3"
		},
		{
			"bufferView":31,
			"componentType":5126,
			"count":250,
			"type":"VEC4"
		},
		{
			"bufferView":32,
			"componentType":5126,
			"count":250,
			"type":"VEC3"
		},
		{
			"bufferView":33,
			"componentType":5126,
			"count":250,
			"type":"VEC3"
		},
		{
			"bufferView":34,
			"componentType":5126,
			"count":250,
			"type":"VEC4"
		},
		{
			"bufferView":35,
			"componentType":5126,
			"count":250,
			"type":"VEC3"
		},
		{
			"bufferView":36,
			"componentType":5126,
			"count":1,
			"max":[
				0.041666666666666664
			],
			"min":[
				0.041666666666666664
			],
			"type":"SCALAR"
		},
		{
			"bufferView":37,
			"componentType":5126,
			"count":1,
			"type":"SCALAR"
		},
		{
			"bufferView":38,
			"componentType":5126,
			"count":250,
			"type":"VEC3"
		},
		{
			"bufferView":39,
			"componentType":5126,
			"count":250,
			"type":"VEC4"
		},
		{
			"bufferView":40,
			"componentType":5126,
			"count":250,
			"type":"VEC3"
		},
		{
			"bufferView":41,
			"componentType":5126,
			"count":250,
			"type":"VEC3"
		},
		{
			"bufferView":42,
			"componentType":5126,
			"count":250,
			"type":"VEC4"
		},
		{
			"bufferView":43,
			"componentType":5126,
			"count":250,
			"type":"VEC3"
		},
		{
			"bufferView":44,
			"componentType":5126,
			"count":250,
			"type":"VEC3"
		},
		{
			"bufferView":45,
			"componentType":5126,
			"count":250,
			"type":"VEC4"
		},
		{
			"bufferView":46,
			"componentType":5126,
			"count":250,
			"type":"VEC3"
		}
	],
	"bufferViews":[
		{
			"buffer":0,
			"byteLength":46080,
			"byteOffset":0,
			"target":34962
		},
		{
			"buffer":0,
			"byteLength":30720,
			"byteOffset":46080,
			"target":34962
		},
		{
			"buffer":0,
			"byteLength":46080,
			"byteOffset":76800,
			"target":34962
		},
		{
			"buffer":0,
			"byteLength":11520,
			"byteOffset":122880,
			"target":34963
		},
		{
			"buffer":0,
			"byteLength":46848,
			"byteOffset":134400,
			"target":34962
		},
		{
			"buffer":0,
			"byteLength":31232,
			"byteOffset":181248,
			"target":34962
		},
		{
			"buffer":0,
			"byteLength":46848,
			"byteOffset":212480,
			"target":34962
		},
		{
			"buffer":0,
			"byteLength":11712,
			"byteOffset":259328,
			"target":34963
		},
		{
			"buffer":0,
			"byteLength":23112,
			"byteOffset":271040,
			"target":34962
		},
		{
			"buffer":0,
			"byteLength":15408,
			"byteOffset":294152,
			"target":34962
		},
		{
			"buffer":0,
			"byteLength":23112,
			"byteOffset":309560,
			"target":34962
		},
		{
			"buffer":0,
			"byteLength":3852,
			"byteOffset":332672,
			"target":34963
		},
		{
			"buffer":0,
			"byteLength":23112,
			"byteOffset":336524,
			"target":34962
		},
		{
			"buffer":0,
			"byteLength":23112,
			"byteOffset":359636,
			"target":34962
		},
		{
			"buffer":0,
			"byteLength":184320,
			"byteOffset":382748,
			"target":34962
		},
		{
			"buffer":0,
			"byteLength":122880,
			"byteOffset":567068,
			"target":34962
		},
		{
			"buffer":0,
			"byteLength":184320,
			"byteOffset":689948,
			"target":34962
		},
		{
			"buffer":0,
			"byteLength":46080,
			"byteOffset":874268,
			"target":34963
		},
		{
			"buffer":0,
			"byteLength":348480,
			"byteOffset":920348,
			"target":34962
		},
		{
			"buffer":0,
			"byteLength":232320,
			"byteOffset":1268828,
			"target":34962
		},
		{
			"buffer":0,
			"byteLength":348480,
			"byteOffset":1501148,
			"target":34962
		},
		{
			"buffer":0,
			"byteLength":86400,
			"byteOffset":1849628,
			"target":34963
		},
		{
			"buffer":0,
			"byteLength":109800,
			"byteOffset":1936028,
			"target":34962
		},
		{
			"buffer":0,
			"byteLength":73200,
			"byteOffset":2045828,
			"target":34962
		},
		{
			"buffer":0,
			"byteLength":109800,
			"byteOffset":2119028,
			"target":34962
		},
		{
			"buffer":0,
			"byteLength":18300,
			"byteOffset":2228828,
			"target":34963
		},
		{
			"buffer":0,
			"byteLength":1000,
			"byteOffset":2247128
		},
		{
			"buffer":0,
			"byteLength":3000,
			"byteOffset":2248128
		},
		{
			"buffer":0,
			"byteLength":4000,
			"byteOffset":2251128
		},
		{
			"buffer":0,
			"byteLength":3000,
			"byteOffset":2255128
		},
		{
			"buffer":0,
			"byteLength":3000,
			"byteOffset":2258128
		},
		{
			"buffer":0,
			"byteLength":4000,
			"byteOffset":2261128
		},
		{
			"buffer":0,
			"byteLength":3000,
			"byteOffset":2265128
		},
		{
			"buffer":0,
			"byteLength":3000,
			"byteOffset":2268128
		},
		{
			"buffer":0,
			"byteLength":4000,
			"byteOffset":2271128
		},
		{
			"buffer":0,
			"byteLength":3000,
			"byteOffset":2275128
		},
		{
			"buffer":0,
			"byteLength":4,
			"byteOffset":2278128
		},
		{
			"buffer":0,
			"byteLength":4,
			"byteOffset":2278132
		},
		{
			"buffer":0,
			"byteLength":3000,
			"byteOffset":2278136
		},
		{
			"buffer":0,
			"byteLength":4000,
			"byteOffset":2281136
		},
		{
			"buffer":0,
			"byteLength":3000,
			"byteOffset":2285136
		},
		{
			"buffer":0,
			"byteLength":3000,
			"byteOffset":2288136
		},
		{
			"buffer":0,
			"byteLength":4000,
			"byteOffset":2291136
		},
		{
			"buffer":0,
			"byteLength":3000,
			"byteOffset":2295136
		},
		{
			"buffer":0,
			"byteLength":3000,
			"byteOffset":2298136
		},
		{
			"buffer":0,
			"byteLength":4000,
			"byteOffset":2301136
		},
		{
			"buffer":0,
			"byteLength":3000,
			"byteOffset":2305136
		}
	],
	"buffers":[
		{
			"byteLength":2308136,
			"uri":"data:application/octet-stream;base64,"
		}
	]
}
